<?xml version="1.0" encoding="utf-8"?>
<!-- Generator: Adobe Illustrator 15.0.0, SVG Export Plug-In . SVG Version: 6.00 Build 0)  -->
<!DOCTYPE svg PUBLIC "-//W3C//DTD SVG 1.1//EN" "http://www.w3.org/Graphics/SVG/1.1/DTD/svg11.dtd">
<svg version="1.1" xmlns="http://www.w3.org/2000/svg" xmlns:xlink="http://www.w3.org/1999/xlink" x="0px" y="0px"
	 width="33px" height="23px" viewBox="0 0 23.657 16.183" enable-background="new 0 0 33 23" xml:space="preserve">
<g id="Layer_2">
</g>
<g id="Layer_1">
	<g opacity="0.4">
		<path fill="#FFFFFF" d="M8.013,0.079C3.587,0.079,0,3.666,0,8.092c0,4.425,3.587,8.013,8.013,8.013
			c4.426,0,8.013-3.587,8.013-8.013C16.026,3.666,12.438,0.079,8.013,0.079L8.013,0.079z"/>
		<path opacity="0.8" fill="#010202" d="M8.013,2.079C4.697,2.079,2,4.776,2,8.092c0,3.315,2.697,6.013,6.013,6.013
			c3.316,0,6.013-2.697,6.013-6.013C14.026,4.776,11.329,2.079,8.013,2.079z M7.166,11.818l-1.293-1.293l2.431-2.431L5.869,5.658
			l1.293-1.293l2.436,2.436l0,0l1.293,1.293L7.166,11.818z"/>
	</g>
</g>
</svg>
