<?xml version="1.0" encoding="UTF-8" standalone="no"?>
<svg
   xmlns:dc="http://purl.org/dc/elements/1.1/"
   xmlns:cc="http://creativecommons.org/ns#"
   xmlns:rdf="http://www.w3.org/1999/02/22-rdf-syntax-ns#"
   xmlns:svg="http://www.w3.org/2000/svg"
   xmlns="http://www.w3.org/2000/svg"
   xmlns:sodipodi="http://sodipodi.sourceforge.net/DTD/sodipodi-0.dtd"
   xmlns:inkscape="http://www.inkscape.org/namespaces/inkscape"
   width="640px"
   height="640px"
   id="svg2"
   version="1.1"
   inkscape:version="0.48.2 r9819"
   sodipodi:docname="newIcon.svg">
  <metadata
     id="metadata14">
    <rdf:RDF>
      <cc:Work
         rdf:about="">
        <dc:format>image/svg+xml</dc:format>
        <dc:type
           rdf:resource="http://purl.org/dc/dcmitype/StillImage" />
      </cc:Work>
    </rdf:RDF>
  </metadata>
  <defs
     id="defs12" />
  <sodipodi:namedview
     pagecolor="#ffffff"
     bordercolor="#666666"
     borderopacity="1"
     objecttolerance="10"
     gridtolerance="10"
     guidetolerance="10"
     inkscape:pageopacity="0"
     inkscape:pageshadow="2"
     inkscape:window-width="971"
     inkscape:window-height="721"
     id="namedview10"
     showgrid="false"
     inkscape:zoom="0.36875"
     inkscape:cx="338.98305"
     inkscape:cy="298.30508"
     inkscape:window-x="0"
     inkscape:window-y="0"
     inkscape:window-maximized="0"
     inkscape:current-layer="svg2" />
  <rect
     x="260.58698"
     y="234.47603"
     width="158.08191"
     height="184.03123"
     rx="3.1616383"
     ry="3.0671875"
     style="fill:#ff7f00;stroke:#000000;stroke-width:1.55702734"
     id="rect4" />
  <path
     id="svg_4"
     d="M 384.68127,221.44049 C 300.10746,259.78034 201.30624,203.80416 131.75019,114.85573 94.337471,78.560661 64.038464,130.44727 85.906441,163.16393 175.22273,240.35479 247.15001,293.0082 362.54981,279.71705 433.68667,264.38112 503.24272,219.9069 560.1522,176.96628 c 17.38902,-13.03555 5.92808,-59.04336 -36.35884,-39.87344 -46.37071,28.11586 -73.77153,54.69818 -139.11209,84.34765 z"
     stroke-linecap="null"
     stroke-linejoin="null"
     inkscape:connector-curvature="0"
     style="fill:#ffffff;stroke:#ffffff;stroke-width:7.78513718;stroke-dasharray:none" />
  <path
     id="svg_5"
     d="M 358.59775,73.448703 C 355.96308,36.642454 422.8844,19.772924 436.05789,64.247141 460.82405,245.72237 438.16568,342.85001 420.2497,397.03697 403.91456,393.45855 387.57946,389.8802 371.24431,386.30181 385.99864,329.55885 427.62685,263.61432 358.59775,73.448703 z"
     stroke-linecap="null"
     stroke-linejoin="null"
     inkscape:connector-curvature="0"
     style="fill:#ffffff;stroke:#ffffff;stroke-width:7.78513718;stroke-dasharray:none" />
  <path
     id="svg_6"
     d="m 124.63651,521.25805 c -36.885759,23.00391 -72.190748,-19.93672 -55.32867,-42.94062 83.2565,-63.38856 220.26083,-119.1091 325.64876,-95.08281 51.64008,29.13829 114.34594,53.67579 169.14765,125.75468 8.43106,32.20547 -27.40088,55.20937 -45.84376,32.20547 -26.87392,-35.78388 -72.71768,-91.50441 -165.98602,-102.75078 -49.53234,1.02238 -89.57975,-8.69035 -227.63796,82.81406 z"
     stroke-linecap="null"
     stroke-linejoin="null"
     inkscape:connector-curvature="0"
     style="fill:#ffffff;stroke:#ffffff;stroke-width:7.78513718;stroke-dasharray:none" />
  <path
     id="svg_7"
     d="m 252.68288,271.28228 c 15.80818,3.57837 31.61638,7.15678 47.42458,10.73517 -46.89762,78.21327 -11.5927,190.16561 1.58081,289.8492 12.64656,37.82862 -63.23277,44.98542 -66.39441,12.26874 -5.26938,-104.28436 -27.92781,-208.56873 17.38902,-312.85311 z"
     stroke-linecap="null"
     stroke-linejoin="null"
     inkscape:connector-curvature="0"
     style="fill:#ffffff;stroke:#ffffff;stroke-width:7.78513718;stroke-dasharray:none" />
</svg>
