<?xml version="1.0" encoding="utf-8"?>
<!-- Generator: Adobe Illustrator 14.0.0, SVG Export Plug-In . SVG Version: 6.00 Build 43363)  -->
<!DOCTYPE svg PUBLIC "-//W3C//DTD SVG 1.0//EN" "http://www.w3.org/TR/2001/REC-SVG-20010904/DTD/svg10.dtd">
<svg version="1.0" id="Layer_1" xmlns="http://www.w3.org/2000/svg" xmlns:xlink="http://www.w3.org/1999/xlink" x="0px" y="0px"
	 width="100px" height="95.448px" viewBox="0 0 100 95.448" enable-background="new 0 0 100 95.448" xml:space="preserve">
<path d="M11.131,79.397C3.709,70.827,0,60.925,0,49.691c0-13.368,4.508-24.724,13.527-34.074C23.534,5.204,36.959,0,53.813,0
	c14.595,0,26.076,3.688,34.44,11.069C96.083,18.037,100,27.078,100,38.192c0,9.347-2.8,17.333-8.395,23.953
	c-5.595,6.622-11.857,9.933-18.787,9.933c-4.06,0-7.056-0.978-8.98-2.921c-1.927-1.95-2.892-4.298-2.892-7.043
	c0-0.449,0.041-0.921,0.122-1.412c0.083-0.497,0.186-1.007,0.312-1.542c-2.175,4.719-4.925,8.047-8.244,9.997
	c-3.32,1.943-6.743,2.921-10.271,2.921c-5.042,0-9.133-1.824-12.268-5.477c-3.136-3.646-4.704-8.341-4.704-14.08
	c0-8.161,2.674-15.354,8.026-21.587c5.345-6.235,11.096-9.348,17.249-9.348c4.181,0,7.636,1.21,10.361,3.628
	c2.73,2.418,4.173,5.329,4.339,8.733l3.073-10.333h9.042l-8.181,26.938c-0.614,2.094-1.067,3.773-1.353,5.044
	c-0.286,1.27-0.432,2.396-0.432,3.384c0,1.841,0.562,3.187,1.691,4.026c1.128,0.84,2.408,1.259,3.845,1.259
	c4.671,0,8.866-2.434,12.576-7.316c3.711-4.877,5.567-11.253,5.567-19.125c0-9.513-3.32-16.986-9.966-22.417
	c-6.641-5.434-15.577-8.149-26.812-8.149c-15.582,0-27.491,4.55-35.732,13.653C12.136,28.658,8.61,38.395,8.61,50.121
	c0,10.25,3.361,18.86,10.085,25.832c7.873,8.243,19.086,12.357,33.64,12.357c6.809,0,13.142-1.073,19.005-3.226
	c5.862-2.152,11.235-5.053,16.111-8.704l4.059,5.535c-3.686,3.281-9.204,6.357-16.542,9.226c-7.338,2.873-15.415,4.307-24.232,4.307
	C33.598,95.448,20.396,90.096,11.131,79.397z M60.392,31.025c-1.701-2.028-4.039-3.042-7.028-3.042
	c-4.667,0-8.715,2.755-12.138,8.269c-3.414,5.518-5.126,11-5.126,16.452c0,4.02,0.88,7.084,2.643,9.195
	c1.753,2.113,3.967,3.167,6.634,3.167c5.525,0,9.839-3.228,12.924-9.686c3.098-6.46,4.644-12.292,4.644-17.498
	C62.945,35.341,62.093,33.057,60.392,31.025z"/>
</svg>
