<?xml version="1.0" encoding="utf-8"?>
<!-- Generator: Adobe Illustrator 14.0.0, SVG Export Plug-In . SVG Version: 6.00 Build 43363)  -->
<!DOCTYPE svg PUBLIC "-//W3C//DTD SVG 1.0//EN" "http://www.w3.org/TR/2001/REC-SVG-20010904/DTD/svg10.dtd">
<svg version="1.0" id="Layer_1" xmlns="http://www.w3.org/2000/svg" xmlns:xlink="http://www.w3.org/1999/xlink" x="0px" y="0px"
	 width="53.776px" height="100px" viewBox="0 0 53.776 100" enable-background="new 0 0 53.776 100" xml:space="preserve">
<path fill-rule="evenodd" clip-rule="evenodd" d="M42.82,0c6.032,0,10.956,3.731,10.956,8.329c0,4.596-4.924,8.323-10.956,8.323
	c-6.042,0-10.951-3.728-10.951-8.323C31.869,3.731,36.778,0,42.82,0"/>
<path fill-rule="evenodd" clip-rule="evenodd" d="M2.54,73.97l11.555-21.558H2.005c11.75-9.464,17.973-17,24.373-27.698h16.383
	l-24.188,49.96c-3.248,6.742,6.042,11.031,16.558,6.742l-4.294,14.634C24.974,100,22.251,100,18.742,100
	C9.463,100-6.139,90.192,2.54,73.97"/>
</svg>
