<?xml version="1.0" encoding="utf-8"?>
<!-- Generator: Adobe Illustrator 14.0.0, SVG Export Plug-In . SVG Version: 6.00 Build 43363)  -->
<!DOCTYPE svg PUBLIC "-//W3C//DTD SVG 1.0//EN" "http://www.w3.org/TR/2001/REC-SVG-20010904/DTD/svg10.dtd">
<svg version="1.0" id="Layer_1" xmlns="http://www.w3.org/2000/svg" xmlns:xlink="http://www.w3.org/1999/xlink" x="0px" y="0px"
	 width="100px" height="75.422px" viewBox="0 0 100 75.422" enable-background="new 0 0 100 75.422" xml:space="preserve">
<path d="M100,75.422H0V0h100V75.422L100,75.422z M11.833,68.445h76.333L63.048,42.73l-4.756,4.787
	c-2.059,2.058-5.007,3.236-8.105,3.236c-0.017,0-0.035-0.003-0.052-0.003c-3.11-0.013-6.067-1.216-8.115-3.304l-4.835-4.895
	L11.833,68.445L11.833,68.445z M6.977,11.973v51.461L32.282,37.59L6.977,11.973L6.977,11.973z M67.964,37.78l25.059,25.651V12.551
	L67.964,37.78L67.964,37.78z M11.849,6.979l35.143,35.573c0.761,0.774,1.916,1.218,3.174,1.221c0.008,0,0.014,0,0.021,0
	c1.24,0,2.421-0.438,3.161-1.182L88.722,6.979H11.849L11.849,6.979z"/>
</svg>
