<?xml version="1.0" encoding="utf-8"?>
<!-- Generator: Adobe Illustrator 14.0.0, SVG Export Plug-In . SVG Version: 6.00 Build 43363)  -->
<!DOCTYPE svg PUBLIC "-//W3C//DTD SVG 1.0//EN" "http://www.w3.org/TR/2001/REC-SVG-20010904/DTD/svg10.dtd">
<svg version="1.0" id="Layer_1" xmlns="http://www.w3.org/2000/svg" xmlns:xlink="http://www.w3.org/1999/xlink" x="0px" y="0px"
	 width="100px" height="88.399px" viewBox="0 0 100 88.399" enable-background="new 0 0 100 88.399" xml:space="preserve">
<polygon points="47.749,28.66 35.955,57.829 52.468,52.143 48.217,68.123 45.389,65.9 46.842,74.89 53.192,67.369 49.262,68.322 
	59,47.189 41.398,52.691 54.1,28.476 "/>
<path id="path3432" d="M49.556,0.036c-0.902,0.142-1.671,0.694-2.106,1.46L0.388,83.911c-0.515,0.907-0.518,2.071,0,2.974
	c0.527,0.916,1.497,1.515,2.553,1.515h94.121c1.055,0,2.027-0.599,2.552-1.515c0.517-0.902,0.515-2.066,0-2.974L52.555,1.496
	C51.949,0.434,50.78-0.156,49.556,0.036z M50,9.52l39.958,71.137H9.988L50,9.52z"/>
</svg>
