<?xml version="1.0" encoding="utf-8"?>
<!-- Generator: Adobe Illustrator 14.0.0, SVG Export Plug-In . SVG Version: 6.00 Build 43363)  -->
<!DOCTYPE svg PUBLIC "-//W3C//DTD SVG 1.0//EN" "http://www.w3.org/TR/2001/REC-SVG-20010904/DTD/svg10.dtd">
<svg version="1.0" id="Layer_1" xmlns="http://www.w3.org/2000/svg" xmlns:xlink="http://www.w3.org/1999/xlink" x="0px" y="0px"
	 width="100px" height="100px" viewBox="0 0 100 100" enable-background="new 0 0 100 100" xml:space="preserve">
<path d="M50,0c27.57,0,50,22.43,50,50c0,27.569-22.43,50-50,50S0,77.569,0,50C0,22.43,22.43,0,50,0L50,0z M50,92.982
	C73.7,92.982,92.982,73.7,92.982,50S73.7,7.018,50,7.018S7.018,26.3,7.018,50S26.3,92.982,50,92.982L50,92.982z"/>
<path d="M30.729,57.915c5.941,7.138,11.883,14.276,17.824,21.414c0.437,0.523,0.951,0.715,1.447,0.681
	c0.496,0.034,1.011-0.157,1.447-0.681c5.941-7.138,11.883-14.276,17.824-21.414c1.1-1.318,0.461-3.494-1.446-3.494
	c-2.494,0-4.986,0-7.479,0c0-10.795,0-21.59,0-32.386c0-1.116-0.931-2.047-2.047-2.047c-5.532,0-11.065,0-16.598,0
	c-1.116,0-2.047,0.931-2.047,2.047c0,10.796,0,21.591,0,32.386c-2.493,0-4.985,0-7.479,0C30.268,54.421,29.629,56.597,30.729,57.915
	z"/>
</svg>
