<?xml version="1.0" encoding="utf-8"?>
<!-- Generator: Adobe Illustrator 14.0.0, SVG Export Plug-In . SVG Version: 6.00 Build 43363)  -->
<!DOCTYPE svg PUBLIC "-//W3C//DTD SVG 1.0//EN" "http://www.w3.org/TR/2001/REC-SVG-20010904/DTD/svg10.dtd">
<svg version="1.0" id="Layer_1" xmlns="http://www.w3.org/2000/svg" xmlns:xlink="http://www.w3.org/1999/xlink" x="0px" y="0px"
	 width="100px" height="100px" viewBox="0 0 100 100" enable-background="new 0 0 100 100" xml:space="preserve">
<path d="M50,100C22.43,100,0,77.57,0,50C0,22.43,22.43,0,50,0s50,22.43,50,50C100,77.57,77.57,100,50,100L50,100z M50,7.018
	C26.3,7.018,7.018,26.3,7.018,50S26.3,92.982,50,92.982S92.982,73.7,92.982,50S73.7,7.018,50,7.018L50,7.018z"/>
<path d="M69.271,42.085c-5.941-7.138-11.883-14.276-17.824-21.414c-0.437-0.524-0.951-0.715-1.447-0.681
	c-0.496-0.034-1.011,0.157-1.447,0.681c-5.941,7.137-11.883,14.276-17.824,21.414c-1.1,1.319-0.461,3.494,1.446,3.494
	c2.494,0,4.986,0,7.479,0c0,10.795,0,21.59,0,32.386c0,1.116,0.931,2.047,2.047,2.047c5.532,0,11.065,0,16.598,0
	c1.116,0,2.047-0.931,2.047-2.047c0-10.796,0-21.591,0-32.386c2.493,0,4.985,0,7.479,0C69.732,45.579,70.371,43.404,69.271,42.085z"
	/>
</svg>
