<?xml version="1.0" encoding="UTF-8" standalone="no"?>
<!DOCTYPE svg PUBLIC "-//W3C//DTD SVG 1.1 Tiny//EN" "http://www.w3.org/Graphics/SVG/1.1/DTD/svg11-tiny.dtd">
<!-- Created with Inkscape (http://www.inkscape.org/) -->

<svg version="1.1" baseProfile="tiny"
	xmlns="http://www.w3.org/2000/svg" xmlns:xlink="http://www.w3.org/1999/xlink"
	width="128"
	height="128"
	id="svg2">
	<g
		transform="translate(0,-924.36218)"
		id="layer1">
		<rect
			width="151.75623"
			height="146.43767"
			x="-4.9639888"
			y="-4.6094184"
			transform="translate(0,924.36218)"
			id="rect3006"
			style="fill:#000000" />
		<g
			id="text2985"
			style="font-size:34.23506927px;font-style:normal;font-variant:normal;font-weight:bold;font-stretch:normal;text-align:start;line-height:125%;letter-spacing:0px;word-spacing:0px;writing-mode:lr-tb;text-anchor:start;fill:#ffffff;fill-opacity:1;stroke:none;font-family:Times New Roman;-inkscape-font-specification:'Times New Roman, Bold'">
			<path
				d="m 14.067278,993.2912 -13.60710275,0 0,-0.36776 8.59220005,-14.24232 -2.5074514,0 c -1.0809955,1e-5 -1.8555186,0.0975 -2.3235716,0.29253 -0.4680612,0.19504 -0.8469646,0.50708 -1.1367113,0.93612 -0.2897526,0.42906 -0.5906465,1.19523 -0.9026825,2.29849 l -0.585072,0 0,-4.54684 13.1557615,0 0,0.45134 -8.5253346,14.10859 1.0698459,0 c 2.1396825,0 3.6831567,-0.30646 4.6304267,-0.9194 0.947247,-0.61293 1.660477,-1.73292 2.139692,-3.35998 l 0.468058,0 z"
				id="path3009" />
			<path
				d="m 24.514991,978.17963 18.287679,0 0,2.17312 -18.287679,0 z m 0,5.46624 18.287679,0 0,2.17312 -18.287679,0 z"
				id="path3011" />
			<path
				d="m 59.936924,979.29962 0,10.84891 c -8e-6,1.04756 0.111434,1.70506 0.334326,1.97252 0.356607,0.41234 1.014116,0.60179 1.972529,0.56836 l 0,0.60179 -9.210705,0 0,-0.60179 c 0.702085,-0.0111 1.200788,-0.0919 1.496113,-0.24239 0.295319,-0.15044 0.498701,-0.3594 0.610146,-0.62686 0.111439,-0.26746 0.16716,-0.82467 0.167164,-1.67163 l 0,-10.84891 -2.273423,0 0,-1.6382 2.273423,0 0,-1.15343 -0.01672,-0.78567 c -3e-6,-1.60475 0.587854,-2.94205 1.763574,-4.01192 1.17571,-1.06982 2.766547,-1.60475 4.772516,-1.60477 1.370729,2e-5 2.387639,0.25634 3.050733,0.76895 0.663068,0.51266 0.994608,1.08102 0.994622,1.70507 -1.4e-5,0.50151 -0.206182,0.93614 -0.618505,1.30388 -0.412349,0.36777 -0.958416,0.55165 -1.638201,0.55163 -0.579511,2e-5 -1.03921,-0.15042 -1.379098,-0.45134 -0.339909,-0.30087 -0.509859,-0.6352 -0.509849,-1.00298 -1e-5,-0.10027 0.03342,-0.30644 0.100298,-0.6185 0.04457,-0.18943 0.06686,-0.36774 0.06687,-0.53492 -10e-6,-0.23401 -0.06688,-0.40675 -0.200597,-0.51821 -0.178317,-0.16714 -0.395629,-0.25072 -0.651937,-0.25075 -0.323191,3e-5 -0.593439,0.13376 -0.810742,0.4012 -0.217321,0.26748 -0.325977,0.69653 -0.325969,1.28715 l 0.03343,2.92536 0,1.98925 2.306855,0 0,1.6382 z"
				id="path3013" />
			<path
				d="m 74.363124,970.10563 0,0.76895 c -1.15901,0.75783 -2.011542,1.49892 -2.5576,2.22328 -0.757816,1.003 -1.348459,2.29015 -1.771933,3.86147 -0.534929,1.95026 -0.80239,4.67502 -0.802384,8.17429 -6e-6,3.2987 0.242381,5.86187 0.727161,7.68952 0.484767,1.82765 1.145062,3.30426 1.980886,4.42983 0.579491,0.78009 1.387447,1.46546 2.42387,2.05611 l 0,0.83582 c -2.685767,-0.90269 -4.961974,-2.74427 -6.828626,-5.52475 -1.86666,-2.78049 -2.799989,-5.97609 -2.799987,-9.58682 -2e-6,-3.56615 0.930541,-6.72275 2.791629,-9.46981 1.86108,-2.74703 4.140072,-4.56633 6.836984,-5.45789 z"
				id="path3015" />
			<path
				d="m 85.195319,983.71273 2.708047,5.14864 c 0.936101,1.79422 1.677192,2.93093 2.223274,3.41013 0.300878,0.25632 0.713214,0.39562 1.237009,0.41791 l 0,0.60179 -8.709214,0 0,-0.60179 c 0.679789,-0.0557 1.100483,-0.14487 1.262083,-0.26746 0.161582,-0.12259 0.242378,-0.28975 0.242387,-0.50149 -9e-6,-0.31204 -0.178317,-0.80238 -0.534923,-1.47104 l -1.354023,-2.54088 -1.153428,1.68835 c -0.523785,0.76895 -0.819106,1.22586 -0.885966,1.37074 -0.08916,0.21174 -0.133736,0.40119 -0.133731,0.56835 -5e-6,0.25632 0.05293,0.47085 0.158805,0.64358 0.105865,0.17274 0.25074,0.3009 0.434625,0.38448 0.183874,0.0836 0.520987,0.12537 1.011339,0.12537 l 0,0.60179 -6.118181,0 0,-0.60179 c 0.757806,0 1.451533,-0.20895 2.081184,-0.62686 0.629646,-0.41791 1.546258,-1.51283 2.749839,-3.28476 l 1.287158,-1.90567 -2.691331,-4.98147 c -0.880397,-1.62704 -1.537906,-2.62445 -1.972529,-2.99222 -0.434626,-0.36775 -0.9194,-0.57391 -1.454321,-0.61851 l 0,-0.6185 8.659065,0 0,0.6185 -0.451341,0.0167 -0.86925,0.30089 c -0.08916,0.078 -0.133739,0.20619 -0.133731,0.38448 -8e-6,0.16718 0.02785,0.33991 0.08358,0.51821 0.03342,0.078 0.189444,0.37891 0.468058,0.90268 l 1.220293,2.27342 0.635221,-0.90268 c 0.891527,-1.22585 1.337295,-2.08396 1.337307,-2.57432 -1.2e-5,-0.23401 -0.09752,-0.43182 -0.292536,-0.59343 -0.195035,-0.16157 -0.543292,-0.27023 -1.044771,-0.32597 l 0,-0.6185 5.533109,0 0,0.6185 c -0.679813,0.0223 -1.315034,0.23126 -1.905663,0.62687 -0.590658,0.39563 -1.253739,1.1618 -1.989245,2.29849 z"
				id="path3017" />
			<path
				d="m 93.620351,999.29237 0,-0.73552 c 1.292728,-0.55722 2.231628,-1.27881 2.816704,-2.16477 0.585067,-0.88597 0.877603,-1.79144 0.877608,-2.71641 -5e-6,-0.18945 -0.03901,-0.33432 -0.117014,-0.43462 -0.07801,-0.0892 -0.156025,-0.13373 -0.234029,-0.13373 -0.06687,0 -0.167168,0.039 -0.300894,0.11701 -0.323187,0.18946 -0.724379,0.28418 -1.203577,0.28418 -0.657512,0 -1.228653,-0.25632 -1.713425,-0.76895 -0.484775,-0.51263 -0.727162,-1.11442 -0.727161,-1.80537 -10e-7,-0.73551 0.278604,-1.38188 0.835817,-1.93909 0.557209,-0.55721 1.231434,-0.83581 2.022678,-0.83582 0.958398,1e-5 1.777498,0.37055 2.457302,1.11164 0.679791,0.74109 1.019689,1.758 1.019697,3.05073 -8e-6,1.59362 -0.481995,3.00894 -1.445964,4.24595 -0.963981,1.23701 -2.393226,2.14526 -4.287742,2.72477 z"
				id="path3019" />
			<path
				d="m 108.79879,993.92642 -5.04833,-11.58443 c -0.75781,-1.74963 -1.31781,-2.82504 -1.68,-3.22625 -0.36218,-0.40118 -0.79959,-0.67978 -1.31223,-0.83582 l 0,-0.6185 8.30802,0 0,0.6185 c -0.54607,0.0223 -0.93055,0.12818 -1.15342,0.31761 -0.2229,0.18947 -0.33434,0.41793 -0.33433,0.68537 -1e-5,0.4235 0.2786,1.25931 0.83582,2.50746 l 2.67461,6.11818 1.82208,-4.73073 c 0.6575,-1.68277 0.98625,-2.85291 0.98627,-3.51043 -2e-5,-0.41232 -0.13653,-0.74108 -0.40955,-0.98626 -0.27305,-0.24516 -0.75504,-0.37889 -1.44597,-0.4012 l 0,-0.6185 5.23222,0 0,0.6185 c -0.51265,0.0557 -0.93056,0.25355 -1.25373,0.59343 -0.3232,0.33992 -0.86369,1.49613 -1.62148,3.46864 l -4.46327,11.58443 c -1.12557,2.8975 -1.96139,4.68057 -2.50745,5.34923 -0.76896,0.93615 -1.73293,1.40415 -2.89193,1.40415 -0.92497,0 -1.67442,-0.2647 -2.24834,-0.794 -0.57393,-0.52936 -0.8609,-1.16737 -0.86089,-1.91403 -1e-5,-0.64636 0.1978,-1.18129 0.59343,-1.60476 0.39561,-0.42349 0.88317,-0.63523 1.46268,-0.63523 0.5572,0 1.00576,0.17831 1.34566,0.53493 0.3399,0.35661 0.51542,0.90825 0.52657,1.65492 0.0111,0.42347 0.0613,0.6965 0.15044,0.8191 0.0892,0.12258 0.21731,0.18387 0.38448,0.18388 0.26745,-10e-6 0.55163,-0.1616 0.85253,-0.48478 0.44576,-0.46806 0.96954,-1.5379 1.57134,-3.20954 z"
				id="path3021" />
			<path
				d="m 118.00949,1000.1449 0,-0.76895 c 1.159,-0.76896 2.01153,-1.51562 2.5576,-2.23999 0.74666,-1.00299 1.33731,-2.28457 1.77194,-3.84476 0.53491,-1.96138 0.80237,-4.69172 0.80238,-8.19101 -10e-6,-3.29868 -0.24239,-5.85906 -0.72716,-7.68116 -0.48478,-1.82206 -1.14507,-3.29588 -1.98089,-4.42147 -0.5795,-0.78008 -1.38746,-1.46545 -2.42387,-2.05611 l 0,-0.83582 c 2.68576,0.90271 4.96197,2.74429 6.82863,5.52475 1.86665,2.7805 2.79998,5.97611 2.79999,9.58683 -1e-5,3.55501 -0.93334,6.70604 -2.79999,9.45309 -1.86666,2.74705 -4.14287,4.57191 -6.82863,5.4746 z"
				id="path3023" />
		</g>
	</g>
</svg>
